# xmcd
#
# Track frame offsets:
#       150
#       14410
#       27007
#       42440
#       58042
#       71027
#       91682
#       105342
#       117655
#       132952
#       145737
#       157850
#       174462
#       188492
#       200255
#       213990
#       226252
#       238862
#       251327
#       264257
#       277500
#       290572
#       303725
#       315845
#
# Disc length: 4376 seconds
#
# Revision: 2
# Processed by: cddbd v1.5.2PL0 Copyright (c) Steve Scherf et al.
# Submitted via: FreeDbEdit v0.1
#
DISCID=3f111618
DTITLE=Nat King Cole - The Wonderful World of Nat King Cole
DYEAR=1900
DGENRE=
TTITLE0=When I Fall in Love
TTITLE1=Ramblin' Rose
TTITLE2=Mona Lisa
TTITLE3=Unforgettable
TTITLE4=Nature Boy
TTITLE5=Sweet Lorraine
TTITLE6=(I Love You) For Sentimental Reasons
TTITLE7=Love Letters
TTITLE8=Too Young
TTITLE9=Darling, Je Vous Aime Beaucoup
TTITLE10=A Blossom Fell
TTITLE11=(Get Your Kicks On) Route 66
TTITLE12=It's Only a Paper Moon
TTITLE13=Straighten Up and Fly Right
TTITLE14=Blue Gardenia
TTITLE15=When You're Smiling
TTITLE16=Love Is Here to Stay
TTITLE17=Let's Fall in Love
TTITLE18=There Goes My Heart
TTITLE19=Tenderly
TTITLE20=Smile
TTITLE21=Answer Me My Love
TTITLE22=Walkin' My Baby Back Home
TTITLE23=Let There Be Love
EXTD=
EXTT0=
EXTT1=
EXTT2=
EXTT3=
EXTT4=There Was A Boy ....
EXTT5=
EXTT6=
EXTT7=
EXTT8=
EXTT9=
EXTT10=
EXTT11=
EXTT12=
EXTT13=
EXTT14=
EXTT15=
EXTT16=
EXTT17=
EXTT18=
EXTT19=
EXTT20=
EXTT21=
EXTT22=
EXTT23=
PLAYORDER=
